# xmcd
#
# Track frame offsets:
# 150
# 21151
# 36574
# 52211
# 65207
# 81430
# 100744
# 115448
# 129753
# 148883
# 159671
# 181048
# 191975
#
# Disc length: 2724 seconds
#
#
# Revision: 0
# Processed by: cddbd v1.5.2PL0 Copyright (c) Steve Scherf et al.
# Submitted via: FreeRIP 2.945 
#
DISCID=c60aa20d
DTITLE=Alabama - Christmas Vol. 2
DYEAR=1900
DGENRE=Country
TTITLE0=The Blessings
TTITLE1=Christmas In Your Arms
TTITLE2=Christmas Is Love
TTITLE3=When It Comes To Christmas
TTITLE4=I Was Young Once Too
TTITLE5=The Night Before Christmas
TTITLE6=O Little Town Of Bethlehem
TTITLE7=Happy Birthday Jesus
TTITLE8=The Christmas Spirit
TTITLE9=Hangin' Round The Mistletoe
TTITLE10=Little Drummer Boy
TTITLE11=Rockin' Around The Christmas Tree
TTITLE12=New Year's Eve 1999
EXTD=
EXTT0=
EXTT1=
EXTT2=
EXTT3=
EXTT4=
EXTT5=
EXTT6=
EXTT7=
EXTT8=
EXTT9=
EXTT10=
EXTT11=
EXTT12=
PLAYORDER=
